<svg width="203" height="203" viewBox="0 0 203 203" fill="none" xmlns="http://www.w3.org/2000/svg">
<rect width="203" height="203" rx="101.5" fill="white"/>
<g clip-path="url(#clip0_703_8)">
<path d="M107.37 132.954C105.948 134.193 104.547 135.466 103.059 136.624C99.4207 139.454 95.8021 142.311 91.9908 144.912C90.4 145.996 88.7665 147.018 87.1667 148.094C85.1592 149.443 83.0955 150.702 80.7317 151.988C81.3882 151.901 81.7489 151.936 82.159 151.811C83.2412 151.482 84.2876 151.069 85.3496 150.695C90.1737 148.997 94.9193 147.097 99.5753 144.99C103.727 143.113 107.814 141.098 111.789 138.865C112.145 138.665 112.457 138.607 112.815 138.818C114.236 139.649 115.757 140.272 117.267 140.913C120.736 142.387 124.269 143.677 127.944 144.547C136.062 146.465 144.329 146.982 152.635 147.119C152.882 147.124 153.22 147.303 153.379 146.953C145.533 140.695 137.182 135.51 126.951 134.002C128.602 133.326 130.261 132.663 131.907 131.968C135.504 130.449 139.012 128.746 142.423 126.846C145.318 125.233 148.105 123.456 150.803 121.522C153.944 119.273 156.765 116.68 159.38 113.868C161.179 111.932 162.812 109.846 164.365 107.689C165.272 106.429 166.113 105.114 166.915 103.812C167.885 102.237 169.243 100.727 168.913 98.5648C168.799 97.8209 168.683 97.6731 167.957 97.821C164.833 98.455 161.735 99.1765 158.665 100.028C152.559 101.72 146.617 103.875 140.895 106.586C137.175 108.35 133.57 110.333 130.142 112.645C126.785 114.908 123.584 117.334 120.689 120.169C119.317 121.513 118.031 122.938 116.664 124.283C113.644 127.256 110.566 130.169 107.37 132.956V132.954Z" fill="#4FBF06"/>
<path d="M38.8412 96.0105C39.5582 96.9762 40.1386 98.0293 40.8869 98.9591C43.8625 102.658 46.6879 106.476 49.8561 110.019C51.2812 111.61 52.6703 113.239 54.1671 114.755C57.5907 118.224 61.2205 121.459 65.3074 124.146C67.3755 125.506 69.4615 126.837 71.6954 127.919C74.6956 129.584 77.8549 130.915 81.0209 132.306C76.0176 132.947 71.0434 133.57 66.1633 134.76C64.5389 135.011 62.9749 135.499 61.4043 135.956C57.7274 137.027 54.1603 138.403 50.6291 139.873C48.9868 140.556 47.3914 141.356 45.776 142.104C49.0853 142.835 52.3208 143.368 55.6123 143.462C60.1204 143.789 64.6263 143.848 69.1411 143.568C73.582 143.29 77.9692 142.709 82.2734 141.589C87.3439 140.269 92.1859 138.392 96.7388 135.737C101.644 132.878 105.833 129.252 108.999 124.56C110.465 122.387 111.708 120.019 112.723 117.601C113.862 114.897 115.018 112.172 115.65 109.27C115.903 108.108 116.116 106.938 116.546 105.797C116.886 104.899 116.665 103.803 116.884 102.84C117.61 99.6335 117.63 96.3936 117.552 93.138C117.583 93.0349 117.646 92.9274 117.637 92.8265C117.348 89.4835 117.355 86.1181 116.467 82.8267C115.645 79.7749 115.305 76.6045 114.034 73.6581C113.349 72.0695 112.932 70.3823 112.224 68.778C111.023 66.0556 109.75 63.3893 108.33 60.7723C107.321 58.9148 106.235 57.0999 105.092 55.341C104.153 53.8958 103.239 52.3968 102.027 51.1286C101.735 50.8239 101.655 50.7298 101.312 51.1152C100.046 52.5402 99.3222 54.3014 98.3364 55.8922C97.0234 58.0163 95.8941 60.2614 94.8119 62.5155C93.2546 65.7576 91.908 69.0939 90.6533 72.4638C90.0573 74.0636 89.589 75.7217 89.1521 77.3573C87.9466 81.8722 87.1086 86.4766 86.9339 91.164C86.8196 94.2269 87.0526 97.2697 87.5209 100.312C88.164 104.493 88.5449 108.717 90.008 112.732C90.4449 114.442 90.7407 116.178 91.4734 117.821C91.9461 118.878 92.4189 120.021 92.3763 121.356C90.7788 119.488 89.2888 117.744 87.7987 116.004C86.8465 115.033 85.8651 114.07 84.9487 113.091C83.7119 111.769 82.419 110.525 81.106 109.288C78.1058 106.463 74.8502 103.974 71.4109 101.702C67.4607 99.0958 63.2371 97.0322 58.8701 95.2643C52.6188 92.7347 46.1613 90.8458 39.5717 89.4208C37.7568 89.0287 35.9441 88.5582 34.0866 88.4417C33.9813 88.845 34.1875 89.087 34.3421 89.32C35.8231 91.5651 37.2392 93.855 38.8435 96.0105H38.8412Z" fill="#4FBF06"/>
<path d="M130.086 148.026C124.473 146.619 119.028 144.733 114.153 141.576C112.743 140.664 111.722 140.119 110.357 141.394C109.456 142.237 108.155 142.4 107.012 143.128C114.453 147.074 122.351 148.186 130.713 148.302C130.341 148.136 130.22 148.06 130.086 148.026Z" fill="#4FBF06"/>
</g>
<defs>
<clipPath id="clip0_703_8">
<rect width="134.908" height="101.121" fill="white" transform="translate(34.0574 50.8621)"/>
</clipPath>
</defs>
</svg>
