<svg width="125" height="67" viewBox="0 0 125 67" fill="none" xmlns="http://www.w3.org/2000/svg">
<path d="M23.3078 32.0321V66.1553L16.8219 58.7308V34.453C13.6111 33.3465 10.4856 32.0321 7.59205 30.1839C4.78647 28.3912 2.48637 26.1106 1.10113 23.027C-0.991488 18.3661 -0.0761268 13.9732 3.63108 10.3216C5.24873 8.72818 7.08708 7.39522 8.74083 5.84704C9.26614 5.35546 9.77417 4.84899 10.2222 4.28498C11.2143 3.03678 12.0438 1.73002 11.6196 0C12.1877 0.949764 12.1409 1.94216 11.8525 2.951C11.2871 4.92963 10.0681 6.51839 8.82524 8.08918C7.53764 9.71749 6.13358 11.2518 5.09007 13.0733C3.40021 16.0212 3.68753 18.8653 5.94847 21.3787C7.6785 23.3034 9.90842 24.321 12.3072 25.0627C13.7926 25.5219 15.3009 25.8661 16.8219 26.1383C17.4266 26.2467 18.0333 26.3438 18.6425 26.4316C19.1561 26.5061 19.6718 26.5734 20.1874 26.6371C22.1417 26.8749 23.4771 28.4821 23.3149 30.3724C23.3897 31.0967 23.3388 31.7321 23.3078 32.0321Z" fill="black"/>
<path d="M25.2542 32.0321V66.1553L31.74 58.7308V34.453C34.9509 33.3465 38.0763 32.0321 40.9699 30.1839C43.7755 28.3912 46.0756 26.1106 47.4608 23.027C49.5545 18.3666 48.6391 13.9732 44.9314 10.3216C43.3137 8.72818 41.4754 7.39522 39.8216 5.84704C39.2963 5.35546 38.7883 4.84899 38.3403 4.28498C37.3466 3.03678 36.5172 1.73002 36.9418 0C36.3738 0.949764 36.4206 1.94216 36.7089 2.951C37.2744 4.92963 38.4933 6.51839 39.7362 8.08918C41.0238 9.71749 42.4279 11.2518 43.4714 13.0733C45.1612 16.0212 44.8739 18.8653 42.613 21.3787C40.8829 23.3034 38.653 24.321 36.2543 25.0627C34.7688 25.5219 33.2605 25.8661 31.7395 26.1383C31.1349 26.2467 30.5282 26.3438 29.919 26.4316C29.4053 26.5061 28.8897 26.5734 28.374 26.6371C26.4197 26.8749 25.0843 28.4821 25.2466 30.3724C25.1718 31.0967 25.2227 31.7321 25.2537 32.0321H25.2542Z" fill="black"/>
<path d="M49.7066 58.7739L49.3669 56.9124H49.2443C48.0345 58.4041 46.1423 59.1951 43.9479 59.1951C40.1721 59.1951 37.9539 56.4568 37.9539 53.4642C37.9539 48.5844 42.2754 46.2714 48.8365 46.2801V46.0412C48.8365 45.0458 48.3066 43.6229 45.4405 43.6291C43.5503 43.6291 41.5639 44.2783 40.3297 45.0273L39.2684 41.3001C40.5601 40.5538 43.0875 39.6215 46.4764 39.6215C52.65 39.6215 54.6027 43.3075 54.6027 47.706V54.2383C54.6027 56.0248 54.6968 57.723 54.8977 58.7744H49.7066V58.7739ZM49.0079 49.9158C45.975 49.8988 43.6296 50.6375 43.6296 52.8678C43.6296 54.377 44.6065 55.1105 45.9185 55.1105C47.3287 55.1105 48.5222 54.1592 48.9011 52.9587C48.989 52.6572 49.0084 52.2951 49.0084 51.9643V49.9163L49.0079 49.9158Z" fill="black"/>
<path d="M80.4139 52.7697C80.4139 55.2055 80.4856 57.216 80.5654 58.7734H75.5645L75.2995 56.1296H75.179C74.4544 57.2874 72.7258 59.1946 69.4 59.1946C65.6323 59.1946 62.8862 56.8148 62.8862 51.0551V40.0416H68.6601V50.1084C68.6601 52.8498 69.5307 54.49 71.5638 54.49C73.1312 54.49 74.0587 53.3917 74.4299 52.441C74.5744 52.1009 74.6405 51.672 74.6405 51.2051V40.0411H80.4144V52.7692L80.4139 52.7697Z" fill="black"/>
<path d="M88.8239 46.2164C88.8239 43.4662 88.7746 41.655 88.6724 40.0416H93.6265L93.8365 43.5089H93.9779C94.9304 40.769 97.1867 39.6204 98.9834 39.6204C99.5153 39.6204 99.7864 39.6343 100.215 39.7293V45.2055C99.7686 45.1105 99.3038 45.0427 98.6564 45.0427C96.5389 45.0427 95.0921 46.1773 94.7041 47.9998C94.6319 48.3697 94.5973 48.8237 94.5973 49.2958V58.7734H88.8234V46.2164H88.8239Z" fill="black"/>
<path d="M125 49.2203C125 56.0654 120.2 59.1946 115.227 59.1946C109.832 59.1946 105.651 55.5918 105.651 49.5434C105.651 43.495 109.599 39.6204 115.559 39.6204C121.519 39.6204 124.999 43.5643 124.999 49.2203H125ZM111.593 49.4124C111.593 52.6089 112.931 55.035 115.388 55.035C117.636 55.035 119.058 52.7615 119.058 49.3821C119.058 46.6201 118.005 43.7811 115.393 43.7811C112.643 43.7811 111.593 46.636 111.593 49.4129V49.4124Z" fill="black"/>
</svg>
